# 3ds Max Wavefront OBJ Exporter v0.97b - (c)2007 guruware
# File Created: 21.10.2016 19:07:12

#
# object Box004
#

v  4.3712 -1.8253 0.0000
v  -5.3073 -1.7148 0.0000
v  -5.2889 -0.1017 0.0000
v  4.3896 -0.2122 0.0000
v  4.3712 -1.8253 3.2264
v  4.3896 -0.2122 3.2264
v  -5.2889 -0.1017 3.2264
v  -5.3073 -1.7148 3.2264
# 8 vertices

vn 0.0000 0.0000 -1.0000
vn 0.0000 0.0000 1.0000
vn 0.9999 -0.0114 0.0000
vn 0.0114 0.9999 0.0000
vn -0.9999 0.0114 0.0000
vn -0.0114 -0.9999 0.0000
# 6 vertex normals

vt 0.0100 0.1475 0.0000
vt 0.6686 0.1475 0.0000
vt 0.6686 0.2573 0.0000
vt 0.0100 0.2573 0.0000
vt 0.6686 0.2851 0.0000
vt 0.6686 0.3948 0.0000
vt 0.0100 0.3948 0.0000
vt 0.0100 0.2851 0.0000
vt 0.6686 0.0100 0.0000
vt 0.6686 0.1198 0.0000
vt 0.4491 0.1198 0.0000
vt 0.4491 0.0100 0.0000
vt 0.0100 0.4157 0.0000
vt 0.6686 0.4157 0.0000
vt 0.6686 0.6352 0.0000
vt 0.0100 0.6352 0.0000
vt 0.4213 0.0100 0.0000
vt 0.4213 0.1198 0.0000
vt 0.2018 0.1198 0.0000
vt 0.2018 0.0100 0.0000
vt 0.0100 0.6683 0.0000
vt 0.9751 0.6683 0.0000
vt 0.9751 0.9900 0.0000
vt 0.0100 0.9900 0.0000
# 24 texture coords

g Box004
s 2
f 1/1/1 2/2/1 3/3/1 
f 3/3/1 4/4/1 1/1/1 
s 4
f 5/5/2 6/6/2 7/7/2 
f 7/7/2 8/8/2 5/5/2 
s 8
f 1/9/3 4/10/3 6/11/3 
f 6/11/3 5/12/3 1/9/3 
s 16
f 4/13/4 3/14/4 7/15/4 
f 7/15/4 6/16/4 4/13/4 
s 32
f 3/17/5 2/18/5 8/19/5 
f 8/19/5 7/20/5 3/17/5 
s 64
f 2/21/6 1/22/6 5/23/6 
f 5/23/6 8/24/6 2/21/6 
# 12 faces

