# 3ds Max Wavefront OBJ Exporter v0.97b - (c)2007 guruware
# File Created: 12.10.2016 20:12:34

#
# object default
#

v  0.5321 2.5610 19.0724
v  0.4928 2.2205 18.7182
v  0.8865 2.8199 18.7369
v  0.4091 2.2097 18.9199
v  0.6485 1.7727 18.7041
v  1.3937 0.6834 19.7745
v  1.6511 0.0558 19.9793
v  2.1995 0.1261 18.6493
v  1.7360 -0.7745 19.9940
v  2.3017 -0.7016 18.6230
v  1.9526 -1.3213 18.6039
v  1.1402 1.2903 18.6875
v  0.8807 1.2963 18.0628
v  1.3900 0.7532 17.5643
v  1.8491 0.7418 18.6695
v  1.7315 -0.6878 17.2514
v  1.4947 -1.3102 17.5015
v  1.0109 -1.7524 17.9946
v  1.2588 -1.7588 18.5916
v  0.4251 -1.9852 18.5856
v  0.4084 2.2227 18.5165
v  0.5258 1.7759 18.4086
v  0.2306 1.7642 18.2862
v  0.2561 1.2724 17.8048
v  0.2852 0.7103 17.1069
v  1.6468 0.1396 17.3198
v  0.3175 0.0880 16.7686
v  0.3605 -0.7412 16.6836
v  0.3923 -1.3528 17.0446
v  0.4142 -1.7756 17.7475
v  0.1766 2.8056 18.0269
v  0.2072 2.2148 18.4329
v  -0.1529 2.5471 18.3866
v  0.0062 2.2018 18.5165
v  -0.0642 1.7453 18.4086
v  -0.3676 1.2315 18.0628
v  -0.8181 0.6387 17.5643
v  -1.0099 0.0018 17.3198
v  -1.0086 -0.8300 17.2514
v  -0.7087 -1.4245 17.5015
v  -0.1818 -1.8143 17.9946
v  -0.5311 2.7464 18.7369
v  -0.0775 2.1909 18.7182
v  -0.1860 1.7294 18.7041
v  -0.6251 1.1987 18.6875
v  -1.2735 0.5798 18.6695
v  -1.5583 -0.0688 18.6493
v  -1.5743 -0.9026 18.6229
v  -1.1630 -1.4829 18.6039
v  -0.4277 -1.8463 18.5916
v  -0.1518 2.5255 19.0724
v  0.0069 2.1888 18.9199
v  -0.0633 1.7267 18.9993
v  -0.3656 1.1922 19.3125
v  -0.8144 0.5689 19.7745
v  -1.0056 -0.0820 19.9793
v  -1.0041 -0.9166 19.9940
v  -0.7051 -1.4945 19.7065
v  -0.1798 -1.8521 19.1882
v  0.2081 2.1967 19.0035
v  0.2319 1.7380 19.1219
v  0.2590 1.2166 19.5716
v  0.2904 0.6114 20.2321
v  0.3237 -0.0308 20.5299
v  0.3669 -0.8637 20.5621
v  0.4170 -1.8290 19.4354
v  0.1789 2.7607 19.4468
v  0.5267 1.7573 18.9993
v  1.4984 -1.3802 19.7065
v  1.0129 -1.7903 19.1882
v  0.2071 2.2172 18.7186
v  0.5310 2.5826 18.3866
v  0.8827 1.2569 19.3125
v  0.3974 -1.4519 20.1633
# 74 vertices

vn 0.5636 0.5586 0.6085
vn 0.9941 -0.1087 -0.0052
vn 0.7065 0.7074 0.0215
vn 0.7078 -0.1164 0.6968
vn 0.8284 0.5598 0.0165
vn 0.5389 0.6034 0.5878
vn 0.6710 0.2665 0.6919
vn 0.9529 0.3031 0.0079
vn 0.7005 -0.2136 0.6809
vn 0.9842 -0.1771 -0.0071
vn 0.7524 -0.6583 -0.0221
vn 0.6494 0.7601 0.0228
vn 0.4471 0.7651 -0.4634
vn 0.5371 0.6392 -0.5504
vn 0.7735 0.6335 0.0188
vn 0.6981 -0.1699 -0.6955
vn 0.5418 -0.6533 -0.5289
vn 0.3196 -0.8982 -0.3018
vn 0.4329 -0.9010 -0.0293
vn 0.0518 -0.9982 -0.0317
vn 0.7053 -0.0725 -0.7052
vn 0.5772 0.5657 -0.5889
vn -0.0281 0.5423 -0.8397
vn -0.0387 0.7461 -0.6647
vn -0.0322 0.6175 -0.7859
vn 0.6689 0.3099 -0.6757
vn -0.0147 0.2835 -0.9589
vn 0.0103 -0.1970 -0.9804
vn 0.0349 -0.6729 -0.7389
vn 0.0471 -0.9088 -0.4146
vn -0.0359 0.6924 -0.7207
vn 0.0067 -0.1285 -0.9917
vn -0.6204 0.5348 -0.5736
vn -0.6940 -0.1451 -0.7052
vn -0.6325 0.5031 -0.5890
vn -0.5240 0.7146 -0.4634
vn -0.6002 0.5802 -0.5505
vn -0.6974 0.2391 -0.6757
vn -0.6769 -0.2413 -0.6954
vn -0.4714 -0.7058 -0.5289
vn -0.2249 -0.9265 -0.3019
vn -0.7759 0.6305 0.0215
vn -0.9775 -0.2110 -0.0052
vn -0.8819 0.4711 0.0166
vn -0.7246 0.6887 0.0227
vn -0.8348 0.5502 0.0189
vn -0.9792 0.2028 0.0080
vn -0.9606 -0.2779 -0.0072
vn -0.6803 -0.7326 -0.0222
vn -0.3374 -0.9409 -0.0291
vn -0.6184 0.4973 0.6085
vn -0.6920 -0.1890 0.6968
vn -0.6308 0.4648 0.6213
vn -0.5227 0.6838 0.5091
vn -0.5984 0.5445 0.5878
vn -0.6951 0.1956 0.6918
vn -0.6747 -0.2848 0.6809
vn -0.4698 -0.7376 0.4850
vn -0.2241 -0.9437 0.2434
vn 0.0099 -0.1907 0.9816
vn -0.0253 0.4887 0.8721
vn -0.0366 0.7026 0.7106
vn -0.0294 0.5664 0.8236
vn -0.0115 0.2221 0.9750
vn 0.0134 -0.2583 0.9660
vn 0.0483 -0.9332 0.3560
vn -0.0335 0.6450 0.7635
vn 0.5793 0.5276 0.6213
vn 0.5438 -0.6849 0.4850
vn 0.3204 -0.9155 0.2433
vn -0.0518 0.9982 0.0318
vn 0.5618 0.5961 -0.5736
vn 0.4492 0.7343 0.5089
vn 0.0372 -0.7180 0.6951
# 74 vertex normals

vt 0.4350 0.0000 0.0000
vt 0.8780 0.0630 0.0000
vt 0.8780 0.0000 0.0000
vt 0.4350 0.0630 0.0000
vt 0.8780 0.1250 0.0000
vt 0.4350 0.3750 0.0000
vt 0.4350 0.5630 0.0000
vt 0.8780 0.5630 0.0000
vt 0.4350 0.7190 0.0000
vt 0.8780 0.7190 0.0000
vt 0.8780 0.8750 0.0000
vt 0.4350 0.1250 0.0000
vt 0.4350 0.2500 0.0000
vt 0.8780 0.2500 0.0000
vt 0.8780 0.3750 0.0000
vt 0.4350 0.8750 0.0000
vt 0.8780 0.9690 0.0000
vt 0.4350 0.9690 0.0000
vt 0.6460 1.1560 0.0000
vt 0.6460 -0.2190 0.0000
# 20 texture coords

g default
s 1
f 1/1/1 2/2/2 3/3/3 
f 4/4/4 2/2/2 1/1/1 
f 2/2/2 4/4/4 5/5/5 
f 6/6/6 7/7/7 8/8/8 
f 7/7/7 9/9/9 10/10/10 
f 10/10/10 9/9/9 11/11/11 
f 5/12/5 12/13/12 13/14/13 
f 13/14/13 12/13/12 14/15/14 
f 12/13/12 15/6/15 14/15/14 
f 16/10/16 10/9/10 17/11/17 
f 10/9/10 11/16/11 17/11/17 
f 17/11/17 11/16/11 18/17/18 
f 11/16/11 19/18/19 18/17/18 
f 18/17/18 19/18/19 20/19/20 
f 21/4/21 22/12/22 23/5/23 
f 23/5/23 22/12/22 24/14/24 
f 22/12/22 13/13/13 24/14/24 
f 24/14/24 13/13/13 25/15/25 
f 13/13/13 14/6/14 25/15/25 
f 14/6/14 26/7/26 27/8/27 
f 28/10/28 16/9/16 29/11/29 
f 29/11/29 17/16/17 30/17/30 
f 31/1/31 32/4/32 33/3/33 
f 33/3/33 32/4/32 34/2/34 
f 34/2/34 23/12/23 35/5/35 
f 35/5/35 23/12/23 36/14/36 
f 23/12/23 24/13/24 36/14/36 
f 37/15/37 25/6/25 38/8/38 
f 39/10/39 28/9/28 40/11/40 
f 40/11/40 29/16/29 41/17/41 
f 41/17/41 30/18/30 20/19/20 
f 42/3/42 33/1/33 43/2/43 
f 33/1/33 34/4/34 43/2/43 
f 44/5/44 35/12/35 45/14/45 
f 45/14/45 36/13/36 46/15/46 
f 36/13/36 37/6/37 46/15/46 
f 46/15/46 37/6/37 47/8/47 
f 37/6/37 38/7/38 47/8/47 
f 47/8/47 38/7/38 48/10/48 
f 38/7/38 39/9/39 48/10/48 
f 39/9/39 40/16/40 49/11/49 
f 49/11/49 40/16/40 50/17/50 
f 50/17/50 41/18/41 20/19/20 
f 42/1/42 43/4/43 51/3/51 
f 51/3/51 43/4/43 52/2/52 
f 52/2/52 44/12/44 53/5/53 
f 53/5/53 44/12/44 54/14/54 
f 45/13/45 46/6/46 55/15/55 
f 55/15/55 46/6/46 56/8/56 
f 46/6/46 47/7/47 56/8/56 
f 56/8/56 47/7/47 57/10/57 
f 47/7/47 48/9/48 57/10/57 
f 57/10/57 48/9/48 58/11/58 
f 59/17/59 50/18/50 20/19/20 
f 60/2/60 52/4/52 61/5/61 
f 61/5/61 53/12/53 62/14/62 
f 53/12/53 54/13/54 62/14/62 
f 62/14/62 54/13/54 63/15/63 
f 63/15/63 55/6/55 64/8/64 
f 55/6/55 56/7/56 64/8/64 
f 64/8/64 56/7/56 65/10/65 
f 66/17/66 59/18/59 20/19/20 
f 67/1/67 60/4/60 1/3/1 
f 1/3/1 60/4/60 4/2/4 
f 60/4/60 61/12/61 4/2/4 
f 4/2/4 61/12/61 68/5/68 
f 6/15/6 63/6/63 7/8/7 
f 63/6/63 64/7/64 7/8/7 
f 7/8/7 64/7/64 9/10/9 
f 64/7/64 65/9/65 9/10/9 
f 9/10/9 65/9/65 69/11/69 
f 70/17/70 66/18/66 20/19/20 
f 1/1/1 3/3/3 71/20/71 
f 3/1/3 72/3/72 71/20/71 
f 31/1/31 33/3/33 71/20/71 
f 33/1/33 42/3/42 71/20/71 
f 42/1/42 51/3/51 71/20/71 
f 51/1/51 67/3/67 71/20/71 
f 67/1/67 1/3/1 71/20/71 
f 4/4/4 68/12/68 5/5/5 
f 5/5/5 68/12/68 12/14/12 
f 68/12/68 73/13/73 12/14/12 
f 12/14/12 73/13/73 15/15/15 
f 73/13/73 6/6/6 15/15/15 
f 15/15/15 6/6/6 8/8/8 
f 8/8/8 7/7/7 10/10/10 
f 9/9/9 69/16/69 11/11/11 
f 11/11/11 69/16/69 19/17/19 
f 69/16/69 70/18/70 19/17/19 
f 19/17/19 70/18/70 20/19/20 
f 3/1/3 2/4/2 72/3/72 
f 72/3/72 2/4/2 21/2/21 
f 2/4/2 5/12/5 21/2/21 
f 21/2/21 5/12/5 22/5/22 
f 22/5/22 5/12/5 13/14/13 
f 14/15/14 15/6/15 26/8/26 
f 15/6/15 8/7/8 26/8/26 
f 26/8/26 8/7/8 16/10/16 
f 8/7/8 10/9/10 16/10/16 
f 31/3/31 72/1/72 32/2/32 
f 72/1/72 21/4/21 32/2/32 
f 32/2/32 21/4/21 23/5/23 
f 25/15/25 14/6/14 27/8/27 
f 27/8/27 26/7/26 28/10/28 
f 26/7/26 16/9/16 28/10/28 
f 16/9/16 17/16/17 29/11/29 
f 17/16/17 18/18/18 30/17/30 
f 30/17/30 18/18/18 20/19/20 
f 32/4/32 23/12/23 34/2/34 
f 36/14/36 24/13/24 37/15/37 
f 24/13/24 25/6/25 37/15/37 
f 25/6/25 27/7/27 38/8/38 
f 38/8/38 27/7/27 39/10/39 
f 27/7/27 28/9/28 39/10/39 
f 28/9/28 29/16/29 40/11/40 
f 29/16/29 30/18/30 41/17/41 
f 43/2/43 34/4/34 44/5/44 
f 34/4/34 35/12/35 44/5/44 
f 35/12/35 36/13/36 45/14/45 
f 48/10/48 39/9/39 49/11/49 
f 40/16/40 41/18/41 50/17/50 
f 43/4/43 44/12/44 52/2/52 
f 44/12/44 45/13/45 54/14/54 
f 54/14/54 45/13/45 55/15/55 
f 48/9/48 49/16/49 58/11/58 
f 58/11/58 49/16/49 59/17/59 
f 49/16/49 50/18/50 59/17/59 
f 67/3/67 51/1/51 60/2/60 
f 51/1/51 52/4/52 60/2/60 
f 52/4/52 53/12/53 61/5/61 
f 54/13/54 55/6/55 63/15/63 
f 56/7/56 57/9/57 65/10/65 
f 65/10/65 57/9/57 74/11/74 
f 57/9/57 58/16/58 74/11/74 
f 74/11/74 58/16/58 66/17/66 
f 58/16/58 59/18/59 66/17/66 
f 68/5/68 61/12/61 73/14/73 
f 61/12/61 62/13/62 73/14/73 
f 73/14/73 62/13/62 6/15/6 
f 62/13/62 63/6/63 6/15/6 
f 65/9/65 74/16/74 69/11/69 
f 69/11/69 74/16/74 70/17/70 
f 74/16/74 66/18/66 70/17/70 
f 72/1/72 31/3/31 71/20/71 
# 144 faces

