# 3ds Max Wavefront OBJ Exporter v0.97b - (c)2007 guruware
# File Created: 09.05.2016 20:12:59

#
# object Pyramid001
#

v  0.0000 0.0000 0.8212
v  -0.1857 -0.2747 0.0000
v  0.1857 -0.2747 0.0000
v  0.1857 0.2747 0.0000
v  -0.1857 0.2747 0.0000
v  0.0000 0.0000 0.0000
# 6 vertices

vn 0.0000 -0.9483 0.3172
vn 0.9754 0.0000 0.2206
vn 0.0000 0.9483 0.3172
vn -0.9754 0.0000 0.2206
vn 0.0000 0.0000 -1.0000
# 5 vertex normals

vt 0.5000 1.0000 0.0000
vt 0.0000 0.0000 0.0000
vt 1.0000 0.0000 0.0000
vt 0.1620 0.0000 0.0000
vt 1.1620 0.0000 0.0000
vt 0.0000 1.0000 0.0000
vt 0.5000 0.5000 0.0000
vt 1.0000 1.0000 0.0000
# 8 texture coords

g Pyramid001
s 4
f 1/1/1 2/2/1 3/3/1 
s 2
f 1/1/2 3/4/2 4/5/2 
s 16
f 1/1/3 4/2/3 5/3/3 
s 32
f 1/1/4 5/4/4 2/5/4 
s 8
f 2/6/5 6/7/5 3/8/5 
f 3/8/5 6/7/5 4/3/5 
f 4/3/5 6/7/5 5/2/5 
f 5/2/5 6/7/5 2/6/5 
# 8 faces

