# 3ds Max Wavefront OBJ Exporter v0.97b - (c)2007 guruware
# File Created: 28.05.2016 18:26:37

#
# object Box001
#

v  0.8299 0.9634 0.0000
v  69.4284 0.9634 0.0000
v  69.4284 70.8156 0.0000
v  0.8299 70.8156 0.0000
v  0.8299 0.9634 67.7173
v  0.8299 70.8156 67.7173
v  69.4284 70.8156 67.7173
v  69.4284 0.9634 67.7173
# 8 vertices

vn 0.0000 0.0000 1.0000
vn 0.0000 0.0000 -1.0000
vn 0.0000 1.0000 0.0000
vn -1.0000 0.0000 0.0000
vn 0.0000 -1.0000 0.0000
vn 1.0000 0.0000 0.0000
# 6 vertex normals

vt 0.9721 0.4871 0.0000
vt 0.6673 0.4871 0.0000
vt 0.6673 0.1767 0.0000
vt 0.9721 0.1767 0.0000
vt 0.3248 0.1767 0.0000
vt 0.3248 0.4871 0.0000
vt 0.0200 0.4871 0.0000
vt 0.0200 0.1767 0.0000
vt 0.9800 0.8229 0.0000
vt 0.6791 0.8229 0.0000
vt 0.6791 0.5180 0.0000
vt 0.9800 0.5180 0.0000
vt 0.3366 0.8206 0.0000
vt 0.0357 0.8206 0.0000
vt 0.0357 0.5102 0.0000
vt 0.3366 0.5102 0.0000
vt 0.6583 0.8229 0.0000
vt 0.3574 0.8229 0.0000
vt 0.3574 0.5180 0.0000
vt 0.6583 0.5180 0.0000
vt 0.6465 0.4871 0.0000
vt 0.3456 0.4871 0.0000
vt 0.3456 0.1767 0.0000
vt 0.6465 0.1767 0.0000
# 24 texture coords

g Box001
s 2
f 1/1/1 2/2/1 3/3/1 
f 3/3/1 4/4/1 1/1/1 
s 4
f 5/5/2 6/6/2 7/7/2 
f 7/7/2 8/8/2 5/5/2 
s 8
f 1/9/3 5/10/3 8/11/3 
f 8/11/3 2/12/3 1/9/3 
s 16
f 2/13/4 8/14/4 7/15/4 
f 7/15/4 3/16/4 2/13/4 
s 32
f 3/17/5 7/18/5 6/19/5 
f 6/19/5 4/20/5 3/17/5 
s 64
f 4/21/6 6/22/6 5/23/6 
f 5/23/6 1/24/6 4/21/6 
# 12 faces

