# 3ds Max Wavefront OBJ Exporter v0.97b - (c)2007 guruware
# File Created: 04.05.2016 12:02:34

#
# object Box001
#

v  -4.1339 -10.6293 0.0000
v  -4.1339 28.4664 0.0000
v  12.2874 28.4664 0.0000
v  12.2874 -10.6293 0.0000
v  -4.1339 -10.6293 16.2116
v  12.2874 -10.6293 16.2116
v  12.2874 28.4664 16.2116
v  -4.1339 28.4664 16.2116
# 8 vertices

vn 0.0000 0.0000 -1.0000
vn 0.0000 0.0000 1.0000
vn 0.0000 -1.0000 0.0000
vn 1.0000 0.0000 0.0000
vn 0.0000 1.0000 0.0000
vn -1.0000 0.0000 0.0000
# 6 vertex normals

vt 0.6791 0.2459 0.0000
vt 0.1423 0.2459 0.0000
vt 0.1423 0.0204 0.0000
vt 0.6791 0.0204 0.0000
vt 0.1423 0.5019 0.0000
vt 0.1423 0.2764 0.0000
vt 0.6791 0.2764 0.0000
vt 0.6791 0.5019 0.0000
vt 0.9351 0.2430 0.0000
vt 0.7096 0.2430 0.0000
vt 0.7096 0.0204 0.0000
vt 0.9351 0.0204 0.0000
vt 0.6791 1.0004 0.0000
vt 0.1423 1.0004 0.0000
vt 0.1423 0.7779 0.0000
vt 0.6791 0.7779 0.0000
vt 0.9351 0.4990 0.0000
vt 0.7096 0.4990 0.0000
vt 0.7096 0.2764 0.0000
vt 0.9351 0.2764 0.0000
vt 0.6791 0.7550 0.0000
vt 0.1423 0.7550 0.0000
vt 0.1423 0.5324 0.0000
vt 0.6791 0.5324 0.0000
# 24 texture coords

g Box001
s 2
f 1/1/1 2/2/1 3/3/1 
f 3/3/1 4/4/1 1/1/1 
s 4
f 5/5/2 6/6/2 7/7/2 
f 7/7/2 8/8/2 5/5/2 
s 8
f 1/9/3 4/10/3 6/11/3 
f 6/11/3 5/12/3 1/9/3 
s 16
f 4/13/4 3/14/4 7/15/4 
f 7/15/4 6/16/4 4/13/4 
s 32
f 3/17/5 2/18/5 8/19/5 
f 8/19/5 7/20/5 3/17/5 
s 64
f 2/21/6 1/22/6 5/23/6 
f 5/23/6 8/24/6 2/21/6 
# 12 faces

